<svg width="67.456" height="46.72" viewBox="0 0 67.456 46.72" xmlns="http://www.w3.org/2000/svg"><g id="svgGroup" stroke-linecap="round" fill-rule="nonzero" font-size="9pt" stroke="#14532D" stroke-width="0.25mm" fill="#14532D" style="stroke:#14532D;stroke-width:0.25mm;fill:#14532D"><path d="M 9.6 46.72 L 0 46.72 L 0 0 L 9.6 0 L 9.6 11.52 L 9.28 18.24 L 12.096 18.24 L 9.28 20.48 Q 9.28 16 11.84 13.44 Q 14.4 10.88 18.752 10.88 Q 23.872 10.88 26.976 14.464 Q 30.08 18.048 30.08 24 L 30.08 46.72 L 20.48 46.72 L 20.48 24.96 Q 20.48 22.208 19.04 20.704 Q 17.6 19.2 14.976 19.2 Q 12.416 19.2 11.008 20.704 Q 9.6 22.208 9.6 24.96 L 9.6 46.72 Z M 67.456 16.64 L 39.296 16.64 L 39.296 10.24 L 67.456 10.24 L 67.456 16.64 Z M 67.456 40.96 L 39.296 40.96 L 39.296 34.56 L 67.456 34.56 L 67.456 40.96 Z M 67.456 28.8 L 39.296 28.8 L 39.296 22.4 L 67.456 22.4 L 67.456 28.8 Z" vector-effect="non-scaling-stroke"/></g></svg>